<?xml version="1.0" encoding="UTF-8"?>
<svg width="752pt" height="752pt" version="1.1" viewBox="0 0 752 752" xmlns="http://www.w3.org/2000/svg">
 <defs>
  <clipPath id="n">
   <path d="m315 443h298v213h-298z"/>
  </clipPath>
  <clipPath id="h">
   <path d="m52.539 289.33 410.13-236.79 236.79 410.13-410.13 236.79z"/>
  </clipPath>
  <clipPath id="g">
   <path d="m589 475h57v43h-57z"/>
  </clipPath>
  <clipPath id="f">
   <path d="m52.539 289.33 410.13-236.79 236.79 410.13-410.13 236.79z"/>
  </clipPath>
  <clipPath id="e">
   <path d="m228 207h197v189h-197z"/>
  </clipPath>
  <clipPath id="d">
   <path d="m52.539 289.33 410.13-236.79 236.79 410.13-410.13 236.79z"/>
  </clipPath>
  <clipPath id="c">
   <path d="m310 362h185v117h-185z"/>
  </clipPath>
  <clipPath id="b">
   <path d="m52.539 289.33 410.13-236.79 236.79 410.13-410.13 236.79z"/>
  </clipPath>
  <clipPath id="a">
   <path d="m331 399h186v117h-186z"/>
  </clipPath>
  <clipPath id="m">
   <path d="m52.539 289.33 410.13-236.79 236.79 410.13-410.13 236.79z"/>
  </clipPath>
  <clipPath id="l">
   <path d="m318 617h26v26h-26z"/>
  </clipPath>
  <clipPath id="k">
   <path d="m52.539 289.33 410.13-236.79 236.79 410.13-410.13 236.79z"/>
  </clipPath>
  <clipPath id="j">
   <path d="m124 85h492v556h-492z"/>
  </clipPath>
  <clipPath id="i">
   <path d="m52.539 289.33 410.13-236.79 236.79 410.13-410.13 236.79z"/>
  </clipPath>
 </defs>
 <g>
  <g clip-path="url(#n)">
   <g clip-path="url(#h)">
    <path d="m607.18 515.95-230.7 133.2c-20.508 11.84-44.77 5.3398-55.867-13.887-11.098-19.227-5.3398-44.766 15.168-56.605l230.7-133.2c5.125-2.9609 12.473-2.0742 16.172 4.332l29.598 51.266c1.6797 5.8711 0.054688 11.934-5.0703 14.895zm-260.3 81.926c-8.9727 5.1797-12.223 17.309-7.043 26.281 5.1797 8.9727 17.309 12.223 26.281 7.043l220.45-127.27-19.238-33.324z" fill="#f9f3ed"/>
   </g>
  </g>
  <g clip-path="url(#g)">
   <g clip-path="url(#f)">
    <path d="m639.22 497.45-32.043 18.5c-5.125 2.9609-12.473 2.0742-16.172-4.332-3.6992-6.4102-2.0742-12.473 4.332-16.172l32.043-18.5c5.125-2.9609 12.473-2.0742 16.172 4.332 3.7031 6.4062 0.79687 13.211-4.332 16.172z" fill="#f9f3ed"/>
   </g>
  </g>
  <g clip-path="url(#e)">
   <g clip-path="url(#d)">
    <path d="m386.36 393.94c-2.5625 1.4805-5.8672 1.6797-7.8867 1.1367-4.043-1.082-91.316-19.051-113.75-28.312-15.633-6.3555-29.098-20.797-33.391-37.113-5.7734-18.883-2.3789-39.641 9.8438-56.949 17.691-25.594 46.34-23.336 63.055-21.023 5.0742-14.891 18.723-41.57 49.734-44.094 21.102-1.9297 40.777 5.5078 54.242 19.949 12.727 13.16 17.758 30.762 15.449 47.477-2.457 25.344-30.535 109.91-32.355 112.67-0.55078 2.0195-2.375 4.7773-4.9375 6.2578zm-117.82-118.24c-3.8438 2.2188-5.668 4.9805-8.7734 8.4844-8.5742 11.785-11.086 25.199-6.9883 38.211 2.6172 10.453 11.098 19.227 20.668 23.957 15.633 6.3555 70.758 18.961 100.34 25.805 8.8672-29.043 25.512-83.086 27.824-99.801 0.6875-10.648-1.9297-21.102-10.414-29.875-9.2227-10.055-22.094-14.586-36.586-13.055-25.688 2.8672-31.594 37.039-32.875 37.777-1.625 6.0664-9.3164 10.504-15.379 8.8789 0.53906-2.0195-22.441-9.2617-37.82-0.38281z" fill="#f9f3ed"/>
   </g>
  </g>
  <g clip-path="url(#c)">
   <g clip-path="url(#b)">
    <path d="m488.57 384.49-160.21 92.496c-6.4062 3.6992-12.473 2.0742-16.172-4.332-3.6992-6.4102-2.0742-12.473 4.332-16.172l160.21-92.496c5.125-2.9609 12.473-2.0742 16.172 4.332 3.7031 6.4062 0.79688 13.211-4.3281 16.172z" fill="#f9f3ed"/>
   </g>
  </g>
  <g clip-path="url(#a)">
   <g clip-path="url(#m)">
    <path d="m510.02 421.66-160.21 92.496c-5.125 2.9609-12.473 2.0742-16.172-4.332-3.6992-6.4102-2.0742-12.473 4.332-16.172l160.21-92.496c5.125-2.9609 12.473-2.0742 16.172 4.332 3.7031 6.4102 0.79297 13.215-4.332 16.172z" fill="#f9f3ed"/>
   </g>
  </g>
  <g clip-path="url(#l)">
   <g clip-path="url(#k)">
    <path d="m337.53 640.87c-2.5625 1.4805-4.5859 0.9375-7.8867 1.1367-3.3047 0.19922-6.0664-1.625-7.5469-4.1875l-1.4805-2.5625c-2.9609-5.125-2.0742-12.473 4.332-16.172 6.4102-3.6992 12.473-2.0742 16.172 4.332l0.73828 1.2812c2.9609 5.125 2.6172 10.453-1.7695 14.691-1.2773 0.74219-2.5586 1.4805-2.5586 1.4805z" fill="#f9f3ed"/>
   </g>
  </g>
  <g clip-path="url(#j)">
   <g clip-path="url(#i)">
    <path d="m336.05 638.31c-6.4102 3.6992-12.473 2.0742-15.434-3.0508l-187.95-325.54c-16.277-28.195-7.0703-62.566 21.125-78.844l248.64-143.55c5.1289-2.9609 11.191-1.3359 14.891 5.0742l196.09 339.64c2.9609 5.125 2.0742 12.473-4.332 16.172l-261.46 150.96c-8.9727 5.1797-12.223 17.309-7.043 26.281 2.2188 3.8438 0.59375 9.9062-4.5312 12.867zm-171.16-388.21c-16.66 9.6211-22.621 31.859-13 48.52l169.45 293.5c3.6484-5.5234 8.0352-9.7656 14.441-13.465l253.77-146.52-184.99-320.42z" fill="#f9f3ed"/>
   </g>
  </g>
 </g>
</svg>
